
<svg xmlns="http://www.w3.org/2000/svg" xmlns:xlink="http://www.w3.org/1999/xlink" width="1920" zoomAndPan="magnify" viewBox="0 0 1440 809.999993" height="1080" preserveAspectRatio="xMidYMid meet" version="1.0"><defs><clipPath id="b7fabb9fab"><path d="M 1060.9375 405 L 1273.347656 405 L 1273.347656 755 L 1060.9375 755 Z M 1060.9375 405 " clip-rule="nonzero"/></clipPath><clipPath id="28ffd93d70"><path d="M 1074.4375 405 L 1259.847656 405 C 1267.304688 405 1273.347656 411.042969 1273.347656 418.5 L 1273.347656 741.433594 C 1273.347656 748.886719 1267.304688 754.933594 1259.847656 754.933594 L 1074.4375 754.933594 C 1066.980469 754.933594 1060.9375 748.886719 1060.9375 741.433594 L 1060.9375 418.5 C 1060.9375 411.042969 1066.980469 405 1074.4375 405 Z M 1074.4375 405 " clip-rule="nonzero"/></clipPath><clipPath id="42fdb15121"><path d="M 1340.78125 142.25 L 1440 142.25 L 1440 340.683594 L 1340.78125 340.683594 Z M 1340.78125 142.25 " clip-rule="nonzero"/></clipPath><clipPath id="0bf3fa4db7"><path d="M 1440 142.25 C 1385.203125 142.25 1340.78125 186.671875 1340.78125 241.46875 C 1340.78125 296.261719 1385.203125 340.683594 1440 340.683594 C 1494.796875 340.683594 1539.21875 296.261719 1539.21875 241.46875 C 1539.21875 186.671875 1494.796875 142.25 1440 142.25 Z M 1440 142.25 " clip-rule="nonzero"/></clipPath><clipPath id="8d2a1d2de5"><path d="M 0 285.328125 L 429.527344 285.328125 L 429.527344 754.933594 L 0 754.933594 Z M 0 285.328125 " clip-rule="nonzero"/></clipPath><clipPath id="ca44626cbd"><path d="M 194.722656 285.328125 C 65.046875 285.328125 -40.078125 390.453125 -40.078125 520.128906 C -40.078125 649.808594 65.046875 754.933594 194.722656 754.933594 C 324.402344 754.933594 429.527344 649.808594 429.527344 520.128906 C 429.527344 390.453125 324.402344 285.328125 194.722656 285.328125 Z M 194.722656 285.328125 " clip-rule="nonzero"/></clipPath></defs><rect x="-144" width="1728" fill="#ffffff" y="-80.999999" height="971.999992" fill-opacity="1"/><rect x="-144" width="1728" fill="#a894fe" y="-80.999999" height="971.999992" fill-opacity="1"/><g clip-path="url(#b7fabb9fab)"><g clip-path="url(#28ffd93d70)"><path fill="#390f87" d="M 1060.9375 405 L 1273.347656 405 L 1273.347656 755.144531 L 1060.9375 755.144531 Z M 1060.9375 405 " fill-opacity="1" fill-rule="nonzero"/></g></g><g clip-path="url(#42fdb15121)"><g clip-path="url(#0bf3fa4db7)"><path fill="#390f87" d="M 1340.78125 142.25 L 1539.21875 142.25 L 1539.21875 340.683594 L 1340.78125 340.683594 Z M 1340.78125 142.25 " fill-opacity="1" fill-rule="nonzero"/></g></g><g clip-path="url(#8d2a1d2de5)"><g clip-path="url(#ca44626cbd)"><path fill="#390f87" d="M -40.078125 285.328125 L 429.527344 285.328125 L 429.527344 754.933594 L -40.078125 754.933594 Z M -40.078125 285.328125 " fill-opacity="1" fill-rule="nonzero"/></g></g></svg>